<svg width="38" height="17" viewBox="0 0 38 17" fill="none" xmlns="http://www.w3.org/2000/svg">
<rect x="0.141602" width="37.4396" height="16.9082" rx="3.62319" fill="#FF6600"/>
<path d="M3.07246 7.91546H4.40097L5.70531 10.814L7.00966 7.91546H8.33816L5.70531 13.3623L3.07246 7.91546ZM17.0536 11.8647V13H11.643L14.4329 9.61836C14.8515 9.11111 15.1736 8.69243 15.399 8.36232C15.6808 7.94364 15.8217 7.55717 15.8217 7.2029C15.8217 6.84058 15.705 6.53462 15.4715 6.28502C15.238 6.02737 14.9079 5.89855 14.4812 5.89855C14.0544 5.89855 13.7163 6.03945 13.4667 6.32126C13.2171 6.60306 13.0802 6.94927 13.056 7.3599H11.8725C11.9047 6.65137 12.1301 6.06361 12.5488 5.59662C13.0158 5.07327 13.6438 4.81159 14.4329 4.81159C15.2461 4.81159 15.8821 5.04911 16.3411 5.52415C16.8 5.99919 17.0295 6.57085 17.0295 7.23913C17.0295 7.79469 16.8362 8.35829 16.4498 8.92995C16.2404 9.24396 15.858 9.72705 15.3024 10.3792L14.0464 11.8647H17.0536ZM19.099 12.9396C18.9622 12.7947 18.8937 12.6216 18.8937 12.4203C18.8937 12.219 18.9622 12.0499 19.099 11.913C19.244 11.7681 19.4171 11.6957 19.6184 11.6957C19.8196 11.6957 19.9887 11.7681 20.1256 11.913C20.2705 12.0499 20.343 12.219 20.343 12.4203C20.343 12.6216 20.2705 12.7947 20.1256 12.9396C19.9887 13.0765 19.8196 13.1449 19.6184 13.1449C19.4171 13.1449 19.244 13.0765 19.099 12.9396ZM26.3932 12.2633C25.8859 12.843 25.278 13.1329 24.5695 13.1329C23.8609 13.1329 23.2531 12.843 22.7458 12.2633C22.0614 11.4823 21.7192 10.3873 21.7192 8.97826C21.7192 7.56119 22.0614 6.46216 22.7458 5.68116C23.2531 5.10145 23.8609 4.81159 24.5695 4.81159C25.278 4.81159 25.8859 5.10145 26.3932 5.68116C27.0775 6.46216 27.4197 7.56119 27.4197 8.97826C27.4197 10.3873 27.0775 11.4823 26.3932 12.2633ZM25.6564 6.5628C25.3666 6.11997 25.0043 5.89855 24.5695 5.89855C24.1347 5.89855 23.7724 6.11997 23.4825 6.5628C23.1122 7.11031 22.927 7.91143 22.927 8.96618C22.927 10.0129 23.1122 10.818 23.4825 11.3816C23.7724 11.8245 24.1347 12.0459 24.5695 12.0459C25.0043 12.0459 25.3666 11.8245 25.6564 11.3816C26.0268 10.818 26.212 10.0129 26.212 8.96618C26.212 7.91143 26.0268 7.11031 25.6564 6.5628ZM29.9734 13V6.07971H28.5724L29.2488 4.94444H31.2053V13H29.9734Z" fill="white"/>
</svg>
